<mxfile host="Electron" agent="Mozilla/5.0 (Windows NT 10.0; Win64; x64) AppleWebKit/537.36 (KHTML, like Gecko) draw.io/26.0.16 Chrome/132.0.6834.196 Electron/34.2.0 Safari/537.36" version="26.0.16">
  <diagram name="Page-1" id="e7e014a7-5840-1c2e-5031-d8a46d1fe8dd">
    <mxGraphModel dx="1498" dy="738" grid="1" gridSize="10" guides="1" tooltips="1" connect="1" arrows="1" fold="1" page="1" pageScale="1" pageWidth="1169" pageHeight="826" background="none" math="0" shadow="0">
      <root>
        <mxCell id="0" />
        <mxCell id="1" parent="0" />
        <mxCell id="2" value="Admin" style="swimlane;whiteSpace=wrap" parent="1" vertex="1">
          <mxGeometry x="247" y="60" width="335.5" height="692" as="geometry" />
        </mxCell>
        <mxCell id="5" value="" style="ellipse;shape=startState;fillColor=#000000;strokeColor=#ff0000;" parent="2" vertex="1">
          <mxGeometry x="100" y="40" width="30" height="30" as="geometry" />
        </mxCell>
        <mxCell id="6" value="" style="edgeStyle=elbowEdgeStyle;elbow=horizontal;verticalAlign=bottom;endArrow=open;endSize=8;strokeColor=#FF0000;endFill=1;rounded=0" parent="2" source="5" edge="1">
          <mxGeometry x="100" y="40" as="geometry">
            <mxPoint x="115.38235294117658" y="110" as="targetPoint" />
          </mxGeometry>
        </mxCell>
        <mxCell id="4JIJEyzcBM4wVhAxjM4r-41" value="Chọn chức năng cập nhật thông tin sản phẩm" style="rounded=1;whiteSpace=wrap;html=1;" vertex="1" parent="2">
          <mxGeometry x="55.5" y="112" width="114.5" height="48" as="geometry" />
        </mxCell>
        <mxCell id="4JIJEyzcBM4wVhAxjM4r-53" value="Yêu cầu đăng nhập" style="rounded=1;whiteSpace=wrap;html=1;" vertex="1" parent="2">
          <mxGeometry x="60" y="192" width="110" height="48" as="geometry" />
        </mxCell>
        <mxCell id="4JIJEyzcBM4wVhAxjM4r-57" value="Chọn sản phẩm muốn cập nhật thông tin" style="rounded=1;whiteSpace=wrap;html=1;" vertex="1" parent="2">
          <mxGeometry x="68" y="270" width="102" height="60" as="geometry" />
        </mxCell>
        <mxCell id="4JIJEyzcBM4wVhAxjM4r-59" value="Điều chỉnh thông tin sản phẩm" style="rounded=1;whiteSpace=wrap;html=1;" vertex="1" parent="2">
          <mxGeometry x="74.75" y="353" width="88.5" height="47" as="geometry" />
        </mxCell>
        <mxCell id="4JIJEyzcBM4wVhAxjM4r-60" value="" style="endArrow=classic;html=1;rounded=0;entryX=0.5;entryY=0;entryDx=0;entryDy=0;exitX=0.5;exitY=1;exitDx=0;exitDy=0;" edge="1" parent="2" source="4JIJEyzcBM4wVhAxjM4r-57" target="4JIJEyzcBM4wVhAxjM4r-59">
          <mxGeometry width="50" height="50" relative="1" as="geometry">
            <mxPoint x="23" y="440" as="sourcePoint" />
            <mxPoint x="73" y="390" as="targetPoint" />
          </mxGeometry>
        </mxCell>
        <mxCell id="4JIJEyzcBM4wVhAxjM4r-70" value="Thông báo không hợp lệ" style="rounded=1;whiteSpace=wrap;html=1;" vertex="1" parent="2">
          <mxGeometry x="71.5" y="450" width="95" height="45" as="geometry" />
        </mxCell>
        <mxCell id="4JIJEyzcBM4wVhAxjM4r-71" value="" style="endArrow=classic;html=1;rounded=0;entryX=0.5;entryY=1;entryDx=0;entryDy=0;exitX=0.5;exitY=0;exitDx=0;exitDy=0;" edge="1" parent="2" source="4JIJEyzcBM4wVhAxjM4r-70" target="4JIJEyzcBM4wVhAxjM4r-59">
          <mxGeometry width="50" height="50" relative="1" as="geometry">
            <mxPoint x="43" y="460" as="sourcePoint" />
            <mxPoint x="93" y="410" as="targetPoint" />
          </mxGeometry>
        </mxCell>
        <mxCell id="3" value="System" style="swimlane;whiteSpace=wrap" parent="1" vertex="1">
          <mxGeometry x="582.5" y="60" width="340" height="692" as="geometry" />
        </mxCell>
        <mxCell id="4JIJEyzcBM4wVhAxjM4r-42" value="Kiểm tra đăng nhập" style="rounded=1;whiteSpace=wrap;html=1;" vertex="1" parent="3">
          <mxGeometry x="60" y="112" width="90" height="44" as="geometry" />
        </mxCell>
        <mxCell id="4JIJEyzcBM4wVhAxjM4r-43" value="Tài khoản" style="rounded=0;whiteSpace=wrap;html=1;" vertex="1" parent="3">
          <mxGeometry x="170" y="52" width="80" height="38" as="geometry" />
        </mxCell>
        <mxCell id="4JIJEyzcBM4wVhAxjM4r-44" value="" style="html=1;labelBackgroundColor=#ffffff;startArrow=none;startFill=0;startSize=6;endArrow=classic;endFill=1;endSize=6;jettySize=auto;orthogonalLoop=1;strokeWidth=1;dashed=1;fontSize=14;rounded=0;entryX=0.5;entryY=0;entryDx=0;entryDy=0;exitX=0;exitY=0.5;exitDx=0;exitDy=0;" edge="1" parent="3" source="4JIJEyzcBM4wVhAxjM4r-43" target="4JIJEyzcBM4wVhAxjM4r-42">
          <mxGeometry width="60" height="60" relative="1" as="geometry">
            <mxPoint x="50" y="122" as="sourcePoint" />
            <mxPoint x="110" y="62" as="targetPoint" />
          </mxGeometry>
        </mxCell>
        <mxCell id="4JIJEyzcBM4wVhAxjM4r-50" value="" style="rhombus;whiteSpace=wrap;html=1;" vertex="1" parent="3">
          <mxGeometry x="57.5" y="192" width="95" height="48" as="geometry" />
        </mxCell>
        <mxCell id="4JIJEyzcBM4wVhAxjM4r-51" value="" style="endArrow=classic;html=1;rounded=0;entryX=0.5;entryY=0;entryDx=0;entryDy=0;exitX=0.5;exitY=1;exitDx=0;exitDy=0;" edge="1" parent="3" source="4JIJEyzcBM4wVhAxjM4r-42" target="4JIJEyzcBM4wVhAxjM4r-50">
          <mxGeometry width="50" height="50" relative="1" as="geometry">
            <mxPoint x="-140" y="262" as="sourcePoint" />
            <mxPoint x="-90" y="212" as="targetPoint" />
          </mxGeometry>
        </mxCell>
        <mxCell id="4JIJEyzcBM4wVhAxjM4r-58" value="Đúng" style="text;html=1;align=center;verticalAlign=middle;resizable=0;points=[];autosize=1;strokeColor=none;fillColor=none;" vertex="1" parent="3">
          <mxGeometry x="60" y="270" width="50" height="30" as="geometry" />
        </mxCell>
        <mxCell id="4JIJEyzcBM4wVhAxjM4r-62" value="Kiểm tra thông tin sản phẩm được cập nhật" style="rounded=1;whiteSpace=wrap;html=1;" vertex="1" parent="3">
          <mxGeometry x="67.5" y="347" width="112.5" height="53" as="geometry" />
        </mxCell>
        <mxCell id="4JIJEyzcBM4wVhAxjM4r-63" value="Sản phẩm" style="rounded=0;whiteSpace=wrap;html=1;" vertex="1" parent="3">
          <mxGeometry x="180" y="270" width="97.5" height="45" as="geometry" />
        </mxCell>
        <mxCell id="4JIJEyzcBM4wVhAxjM4r-64" value="" style="html=1;labelBackgroundColor=#ffffff;startArrow=none;startFill=0;startSize=6;endArrow=classic;endFill=1;endSize=6;jettySize=auto;orthogonalLoop=1;strokeWidth=1;dashed=1;fontSize=14;rounded=0;entryX=0.5;entryY=0;entryDx=0;entryDy=0;exitX=0;exitY=0.5;exitDx=0;exitDy=0;" edge="1" parent="3" source="4JIJEyzcBM4wVhAxjM4r-63" target="4JIJEyzcBM4wVhAxjM4r-62">
          <mxGeometry width="60" height="60" relative="1" as="geometry">
            <mxPoint x="242.5" y="221.5" as="sourcePoint" />
            <mxPoint x="177.5" y="262.5" as="targetPoint" />
          </mxGeometry>
        </mxCell>
        <mxCell id="4JIJEyzcBM4wVhAxjM4r-65" value="" style="endArrow=classic;html=1;rounded=0;exitX=0.5;exitY=1;exitDx=0;exitDy=0;entryX=0.5;entryY=0;entryDx=0;entryDy=0;" edge="1" parent="3" source="4JIJEyzcBM4wVhAxjM4r-62" target="4JIJEyzcBM4wVhAxjM4r-66">
          <mxGeometry width="50" height="50" relative="1" as="geometry">
            <mxPoint x="107.5" y="510" as="sourcePoint" />
            <mxPoint x="123.5" y="450" as="targetPoint" />
          </mxGeometry>
        </mxCell>
        <mxCell id="4JIJEyzcBM4wVhAxjM4r-66" value="" style="rhombus;whiteSpace=wrap;html=1;" vertex="1" parent="3">
          <mxGeometry x="86.5" y="450" width="74.5" height="50" as="geometry" />
        </mxCell>
        <mxCell id="4JIJEyzcBM4wVhAxjM4r-72" value="" style="endArrow=classic;html=1;rounded=0;exitX=0.5;exitY=1;exitDx=0;exitDy=0;" edge="1" parent="3" source="4JIJEyzcBM4wVhAxjM4r-66">
          <mxGeometry width="50" height="50" relative="1" as="geometry">
            <mxPoint x="117.5" y="610" as="sourcePoint" />
            <mxPoint x="123.5" y="560" as="targetPoint" />
          </mxGeometry>
        </mxCell>
        <mxCell id="4JIJEyzcBM4wVhAxjM4r-73" value="Cập nhật thông tin sản phẩm" style="rounded=1;whiteSpace=wrap;html=1;" vertex="1" parent="3">
          <mxGeometry x="70.5" y="560" width="99.5" height="50" as="geometry" />
        </mxCell>
        <mxCell id="4JIJEyzcBM4wVhAxjM4r-74" value="" style="endArrow=classic;html=1;rounded=0;exitX=1;exitY=0.5;exitDx=0;exitDy=0;entryX=0;entryY=0.5;entryDx=0;entryDy=0;" edge="1" parent="3" source="4JIJEyzcBM4wVhAxjM4r-73" target="4JIJEyzcBM4wVhAxjM4r-75">
          <mxGeometry width="50" height="50" relative="1" as="geometry">
            <mxPoint x="197.5" y="570" as="sourcePoint" />
            <mxPoint x="257.5" y="585" as="targetPoint" />
          </mxGeometry>
        </mxCell>
        <mxCell id="4JIJEyzcBM4wVhAxjM4r-75" value="" style="ellipse;html=1;shape=endState;fillColor=#000000;strokeColor=#ff0000;" vertex="1" parent="3">
          <mxGeometry x="267.5" y="570" width="30" height="30" as="geometry" />
        </mxCell>
        <mxCell id="4JIJEyzcBM4wVhAxjM4r-45" value="" style="endArrow=classic;html=1;rounded=0;entryX=0;entryY=0.5;entryDx=0;entryDy=0;exitX=1;exitY=0.5;exitDx=0;exitDy=0;" edge="1" parent="1" source="4JIJEyzcBM4wVhAxjM4r-41" target="4JIJEyzcBM4wVhAxjM4r-42">
          <mxGeometry width="50" height="50" relative="1" as="geometry">
            <mxPoint x="462.5" y="252" as="sourcePoint" />
            <mxPoint x="512.5" y="202" as="targetPoint" />
          </mxGeometry>
        </mxCell>
        <mxCell id="4JIJEyzcBM4wVhAxjM4r-52" value="" style="endArrow=classic;html=1;rounded=0;exitX=0;exitY=0.5;exitDx=0;exitDy=0;entryX=1;entryY=0.5;entryDx=0;entryDy=0;" edge="1" parent="1" source="4JIJEyzcBM4wVhAxjM4r-50" target="4JIJEyzcBM4wVhAxjM4r-53">
          <mxGeometry width="50" height="50" relative="1" as="geometry">
            <mxPoint x="432.5" y="342" as="sourcePoint" />
            <mxPoint x="462.5" y="276" as="targetPoint" />
          </mxGeometry>
        </mxCell>
        <mxCell id="4JIJEyzcBM4wVhAxjM4r-54" value="Sai" style="text;html=1;align=center;verticalAlign=middle;resizable=0;points=[];autosize=1;strokeColor=none;fillColor=none;" vertex="1" parent="1">
          <mxGeometry x="612.5" y="250" width="40" height="30" as="geometry" />
        </mxCell>
        <mxCell id="4JIJEyzcBM4wVhAxjM4r-55" value="" style="endArrow=classic;html=1;rounded=0;entryX=0;entryY=0.5;entryDx=0;entryDy=0;exitX=1;exitY=0.5;exitDx=0;exitDy=0;" edge="1" parent="1" source="4JIJEyzcBM4wVhAxjM4r-53" target="4JIJEyzcBM4wVhAxjM4r-42">
          <mxGeometry width="50" height="50" relative="1" as="geometry">
            <mxPoint x="482.5" y="272" as="sourcePoint" />
            <mxPoint x="532.5" y="222" as="targetPoint" />
          </mxGeometry>
        </mxCell>
        <mxCell id="4JIJEyzcBM4wVhAxjM4r-56" value="" style="endArrow=classic;html=1;rounded=0;exitX=0.5;exitY=1;exitDx=0;exitDy=0;entryX=1;entryY=0.5;entryDx=0;entryDy=0;" edge="1" parent="1" source="4JIJEyzcBM4wVhAxjM4r-50" target="4JIJEyzcBM4wVhAxjM4r-57">
          <mxGeometry width="50" height="50" relative="1" as="geometry">
            <mxPoint x="650" y="420" as="sourcePoint" />
            <mxPoint x="510" y="360" as="targetPoint" />
            <Array as="points">
              <mxPoint x="688" y="360" />
            </Array>
          </mxGeometry>
        </mxCell>
        <mxCell id="4JIJEyzcBM4wVhAxjM4r-61" value="" style="endArrow=classic;html=1;rounded=0;exitX=1;exitY=0.5;exitDx=0;exitDy=0;entryX=0;entryY=0.5;entryDx=0;entryDy=0;" edge="1" parent="1" source="4JIJEyzcBM4wVhAxjM4r-59" target="4JIJEyzcBM4wVhAxjM4r-62">
          <mxGeometry width="50" height="50" relative="1" as="geometry">
            <mxPoint x="490" y="480" as="sourcePoint" />
            <mxPoint x="640" y="437" as="targetPoint" />
          </mxGeometry>
        </mxCell>
        <mxCell id="4JIJEyzcBM4wVhAxjM4r-69" value="Sai" style="text;html=1;align=center;verticalAlign=middle;resizable=0;points=[];autosize=1;strokeColor=none;fillColor=none;" vertex="1" parent="1">
          <mxGeometry x="640" y="508" width="40" height="30" as="geometry" />
        </mxCell>
        <mxCell id="4JIJEyzcBM4wVhAxjM4r-68" value="" style="endArrow=classic;html=1;rounded=0;exitX=0;exitY=0.5;exitDx=0;exitDy=0;entryX=1;entryY=0.5;entryDx=0;entryDy=0;" edge="1" parent="1" source="4JIJEyzcBM4wVhAxjM4r-66" target="4JIJEyzcBM4wVhAxjM4r-70">
          <mxGeometry width="50" height="50" relative="1" as="geometry">
            <mxPoint x="460" y="560" as="sourcePoint" />
            <mxPoint x="440" y="535" as="targetPoint" />
          </mxGeometry>
        </mxCell>
      </root>
    </mxGraphModel>
  </diagram>
</mxfile>
